<mxfile host="app.diagrams.net" modified="2024-03-29T02:02:38.421Z" agent="Mozilla/5.0 (Windows NT 10.0; Win64; x64) AppleWebKit/537.36 (KHTML, like Gecko) Chrome/123.0.0.0 Safari/537.36" etag="-LzvxulcSDqqwVcbtD72" version="24.2.0" type="device">
  <diagram id="C5RBs43oDa-KdzZeNtuy" name="Page-1">
    <mxGraphModel dx="2100" dy="1114" grid="1" gridSize="10" guides="1" tooltips="1" connect="1" arrows="1" fold="1" page="1" pageScale="1" pageWidth="827" pageHeight="1169" math="0" shadow="0">
      <root>
        <mxCell id="WIyWlLk6GJQsqaUBKTNV-0" />
        <mxCell id="WIyWlLk6GJQsqaUBKTNV-1" parent="WIyWlLk6GJQsqaUBKTNV-0" />
        <mxCell id="ZPii3JduxjOm7q3qWqcq-21" value="Comment" style="rounded=0;arcSize=10;whiteSpace=wrap;html=1;align=center;fillColor=#b0e3e6;strokeColor=#0e8088;glass=0;fontSize=14;fontStyle=1;shadow=1;" parent="WIyWlLk6GJQsqaUBKTNV-1" vertex="1">
          <mxGeometry x="386" y="446" width="100" height="40" as="geometry" />
        </mxCell>
        <mxCell id="ZPii3JduxjOm7q3qWqcq-22" value="User" style="rounded=0;arcSize=10;whiteSpace=wrap;html=1;align=center;fillColor=#b0e3e6;strokeColor=#0e8088;fontSize=14;fontStyle=1;shadow=1;" parent="WIyWlLk6GJQsqaUBKTNV-1" vertex="1">
          <mxGeometry x="207" y="320" width="119" height="40" as="geometry" />
        </mxCell>
        <mxCell id="ZPii3JduxjOm7q3qWqcq-23" value="Notification" style="rounded=0;arcSize=10;whiteSpace=wrap;html=1;align=center;fillColor=#b0e3e6;strokeColor=#0e8088;glass=0;fontSize=14;fontStyle=1;shadow=1;" parent="WIyWlLk6GJQsqaUBKTNV-1" vertex="1">
          <mxGeometry x="373" y="210" width="100" height="40" as="geometry" />
        </mxCell>
        <mxCell id="ZPii3JduxjOm7q3qWqcq-24" value="Material" style="rounded=0;arcSize=10;whiteSpace=wrap;html=1;align=center;fillColor=#b0e3e6;strokeColor=#0e8088;glass=0;fontSize=14;fontStyle=1;shadow=1;" parent="WIyWlLk6GJQsqaUBKTNV-1" vertex="1">
          <mxGeometry x="552" y="320" width="128" height="40" as="geometry" />
        </mxCell>
        <mxCell id="ZPii3JduxjOm7q3qWqcq-26" value="Contains" style="shape=rhombus;html=1;dashed=0;whiteSpace=wrap;perimeter=rhombusPerimeter;fillColor=#d0cee2;strokeColor=#56517e;fontSize=14;fontStyle=1;shadow=1;" parent="WIyWlLk6GJQsqaUBKTNV-1" vertex="1">
          <mxGeometry x="401" y="310" width="70" height="60" as="geometry" />
        </mxCell>
        <mxCell id="ZPii3JduxjOm7q3qWqcq-27" value="Receive" style="shape=rhombus;html=1;dashed=0;whiteSpace=wrap;perimeter=rhombusPerimeter;fillColor=#d0cee2;strokeColor=#56517e;fontSize=14;fontStyle=1;shadow=1;" parent="WIyWlLk6GJQsqaUBKTNV-1" vertex="1">
          <mxGeometry x="202" y="200" width="70" height="60" as="geometry" />
        </mxCell>
        <mxCell id="ZPii3JduxjOm7q3qWqcq-28" value="Has" style="shape=rhombus;html=1;dashed=0;whiteSpace=wrap;perimeter=rhombusPerimeter;fillColor=#d0cee2;strokeColor=#56517e;fontSize=14;fontStyle=1;shadow=1;" parent="WIyWlLk6GJQsqaUBKTNV-1" vertex="1">
          <mxGeometry x="549" y="436" width="70" height="60" as="geometry" />
        </mxCell>
        <mxCell id="ZPii3JduxjOm7q3qWqcq-29" value="Post" style="shape=rhombus;html=1;dashed=0;whiteSpace=wrap;perimeter=rhombusPerimeter;fillColor=#d0cee2;strokeColor=#56517e;fontSize=14;fontStyle=1;shadow=1;" parent="WIyWlLk6GJQsqaUBKTNV-1" vertex="1">
          <mxGeometry x="278" y="436" width="70" height="60" as="geometry" />
        </mxCell>
        <mxCell id="ZPii3JduxjOm7q3qWqcq-31" value="" style="endArrow=none;html=1;rounded=0;exitX=0.5;exitY=1;exitDx=0;exitDy=0;entryX=0.25;entryY=0;entryDx=0;entryDy=0;fontSize=14;fontStyle=1;shadow=1;" parent="WIyWlLk6GJQsqaUBKTNV-1" source="ZPii3JduxjOm7q3qWqcq-27" target="ZPii3JduxjOm7q3qWqcq-22" edge="1">
          <mxGeometry width="50" height="50" relative="1" as="geometry">
            <mxPoint x="271" y="290" as="sourcePoint" />
            <mxPoint x="281" y="300" as="targetPoint" />
          </mxGeometry>
        </mxCell>
        <mxCell id="ZPii3JduxjOm7q3qWqcq-32" value="" style="endArrow=none;html=1;rounded=0;entryX=1;entryY=0.5;entryDx=0;entryDy=0;exitX=0;exitY=0.5;exitDx=0;exitDy=0;fillColor=#bac8d3;strokeColor=#23445d;fontSize=14;fontStyle=1;shadow=1;" parent="WIyWlLk6GJQsqaUBKTNV-1" source="ZPii3JduxjOm7q3qWqcq-23" target="ZPii3JduxjOm7q3qWqcq-27" edge="1">
          <mxGeometry width="50" height="50" relative="1" as="geometry">
            <mxPoint x="271" y="400" as="sourcePoint" />
            <mxPoint x="271" y="370" as="targetPoint" />
          </mxGeometry>
        </mxCell>
        <mxCell id="ZPii3JduxjOm7q3qWqcq-33" value="" style="endArrow=none;html=1;rounded=0;entryX=1;entryY=0.5;entryDx=0;entryDy=0;exitX=0;exitY=0.5;exitDx=0;exitDy=0;fontSize=14;fontStyle=1;shadow=1;" parent="WIyWlLk6GJQsqaUBKTNV-1" source="ZPii3JduxjOm7q3qWqcq-26" target="ZPii3JduxjOm7q3qWqcq-22" edge="1">
          <mxGeometry width="50" height="50" relative="1" as="geometry">
            <mxPoint x="281" y="410" as="sourcePoint" />
            <mxPoint x="281" y="380" as="targetPoint" />
          </mxGeometry>
        </mxCell>
        <mxCell id="ZPii3JduxjOm7q3qWqcq-34" value="" style="endArrow=none;html=1;rounded=0;entryX=1;entryY=0.5;entryDx=0;entryDy=0;exitX=0;exitY=0.5;exitDx=0;exitDy=0;fontSize=14;fontStyle=1;shadow=1;" parent="WIyWlLk6GJQsqaUBKTNV-1" source="ZPii3JduxjOm7q3qWqcq-24" target="ZPii3JduxjOm7q3qWqcq-26" edge="1">
          <mxGeometry width="50" height="50" relative="1" as="geometry">
            <mxPoint x="291" y="420" as="sourcePoint" />
            <mxPoint x="291" y="390" as="targetPoint" />
          </mxGeometry>
        </mxCell>
        <mxCell id="ZPii3JduxjOm7q3qWqcq-35" value="" style="endArrow=none;html=1;rounded=0;entryX=1;entryY=0.5;entryDx=0;entryDy=0;exitX=0;exitY=0.5;exitDx=0;exitDy=0;fontSize=14;fontStyle=1;shadow=1;" parent="WIyWlLk6GJQsqaUBKTNV-1" source="ZPii3JduxjOm7q3qWqcq-28" target="ZPii3JduxjOm7q3qWqcq-21" edge="1">
          <mxGeometry width="50" height="50" relative="1" as="geometry">
            <mxPoint x="561" y="336" as="sourcePoint" />
            <mxPoint x="481" y="336" as="targetPoint" />
          </mxGeometry>
        </mxCell>
        <mxCell id="ZPii3JduxjOm7q3qWqcq-36" value="" style="endArrow=none;html=1;rounded=0;entryX=0.5;entryY=0;entryDx=0;entryDy=0;exitX=0.25;exitY=1;exitDx=0;exitDy=0;fontSize=14;fontStyle=1;shadow=1;" parent="WIyWlLk6GJQsqaUBKTNV-1" source="ZPii3JduxjOm7q3qWqcq-24" target="ZPii3JduxjOm7q3qWqcq-28" edge="1">
          <mxGeometry width="50" height="50" relative="1" as="geometry">
            <mxPoint x="571" y="360" as="sourcePoint" />
            <mxPoint x="491" y="360" as="targetPoint" />
          </mxGeometry>
        </mxCell>
        <mxCell id="ZPii3JduxjOm7q3qWqcq-38" value="" style="endArrow=none;html=1;rounded=0;entryX=1;entryY=0.5;entryDx=0;entryDy=0;exitX=0;exitY=0.5;exitDx=0;exitDy=0;fontSize=14;fontStyle=1;shadow=1;" parent="WIyWlLk6GJQsqaUBKTNV-1" source="ZPii3JduxjOm7q3qWqcq-21" target="ZPii3JduxjOm7q3qWqcq-29" edge="1">
          <mxGeometry width="50" height="50" relative="1" as="geometry">
            <mxPoint x="591" y="366" as="sourcePoint" />
            <mxPoint x="511" y="366" as="targetPoint" />
          </mxGeometry>
        </mxCell>
        <mxCell id="ZPii3JduxjOm7q3qWqcq-39" value="Has" style="shape=rhombus;html=1;dashed=0;whiteSpace=wrap;perimeter=rhombusPerimeter;fillColor=#d0cee2;strokeColor=#56517e;fontSize=14;fontStyle=1;shadow=1;" parent="WIyWlLk6GJQsqaUBKTNV-1" vertex="1">
          <mxGeometry x="549" y="200" width="70" height="60" as="geometry" />
        </mxCell>
        <mxCell id="ZPii3JduxjOm7q3qWqcq-40" value="" style="endArrow=none;html=1;rounded=0;entryX=0.25;entryY=0;entryDx=0;entryDy=0;exitX=0.5;exitY=1;exitDx=0;exitDy=0;fontSize=14;fontStyle=1;shadow=1;" parent="WIyWlLk6GJQsqaUBKTNV-1" source="ZPii3JduxjOm7q3qWqcq-39" target="ZPii3JduxjOm7q3qWqcq-24" edge="1">
          <mxGeometry width="50" height="50" relative="1" as="geometry">
            <mxPoint x="561" y="270" as="sourcePoint" />
            <mxPoint x="471" y="270" as="targetPoint" />
          </mxGeometry>
        </mxCell>
        <mxCell id="ZPii3JduxjOm7q3qWqcq-41" value="" style="endArrow=none;html=1;rounded=0;entryX=0;entryY=0.5;entryDx=0;entryDy=0;exitX=1;exitY=0.5;exitDx=0;exitDy=0;fillColor=#bac8d3;strokeColor=#23445d;fontSize=14;fontStyle=1;shadow=1;" parent="WIyWlLk6GJQsqaUBKTNV-1" source="ZPii3JduxjOm7q3qWqcq-23" target="ZPii3JduxjOm7q3qWqcq-39" edge="1">
          <mxGeometry width="50" height="50" relative="1" as="geometry">
            <mxPoint x="406" y="250" as="sourcePoint" />
            <mxPoint x="316" y="250" as="targetPoint" />
          </mxGeometry>
        </mxCell>
        <mxCell id="ZPii3JduxjOm7q3qWqcq-43" value="Likes" style="ellipse;whiteSpace=wrap;html=1;align=center;fillColor=#bac8d3;strokeColor=#23445d;fontSize=14;fontStyle=1;shadow=1;" parent="WIyWlLk6GJQsqaUBKTNV-1" vertex="1">
          <mxGeometry x="301" y="510" width="100" height="40" as="geometry" />
        </mxCell>
        <mxCell id="ZPii3JduxjOm7q3qWqcq-44" value="Dislikes" style="ellipse;whiteSpace=wrap;html=1;align=center;fillColor=#bac8d3;strokeColor=#23445d;fontSize=14;fontStyle=1;shadow=1;" parent="WIyWlLk6GJQsqaUBKTNV-1" vertex="1">
          <mxGeometry x="503" y="510" width="100" height="40" as="geometry" />
        </mxCell>
        <mxCell id="ZPii3JduxjOm7q3qWqcq-45" value="Owner" style="ellipse;whiteSpace=wrap;html=1;align=center;fillColor=#bac8d3;strokeColor=#23445d;fontSize=14;fontStyle=1;shadow=1;" parent="WIyWlLk6GJQsqaUBKTNV-1" vertex="1">
          <mxGeometry x="283" y="670" width="100" height="40" as="geometry" />
        </mxCell>
        <mxCell id="ZPii3JduxjOm7q3qWqcq-46" value="Collaborator" style="ellipse;whiteSpace=wrap;html=1;align=center;fillColor=#bac8d3;strokeColor=#23445d;fontSize=14;fontStyle=1;shadow=1;" parent="WIyWlLk6GJQsqaUBKTNV-1" vertex="1">
          <mxGeometry x="248" y="730" width="100" height="40" as="geometry" />
        </mxCell>
        <mxCell id="ZPii3JduxjOm7q3qWqcq-47" value="Editor" style="ellipse;whiteSpace=wrap;html=1;align=center;fillColor=#bac8d3;strokeColor=#23445d;fontSize=14;fontStyle=1;shadow=1;" parent="WIyWlLk6GJQsqaUBKTNV-1" vertex="1">
          <mxGeometry x="70" y="660" width="100" height="40" as="geometry" />
        </mxCell>
        <mxCell id="ZPii3JduxjOm7q3qWqcq-48" value="Viewer" style="ellipse;whiteSpace=wrap;html=1;align=center;fillColor=#bac8d3;strokeColor=#23445d;fontSize=14;fontStyle=1;shadow=1;" parent="WIyWlLk6GJQsqaUBKTNV-1" vertex="1">
          <mxGeometry x="102" y="730" width="100" height="40" as="geometry" />
        </mxCell>
        <mxCell id="ZPii3JduxjOm7q3qWqcq-50" value="&lt;u style=&quot;font-size: 14px;&quot;&gt;Id&lt;/u&gt;" style="ellipse;whiteSpace=wrap;html=1;align=center;fillColor=#bac8d3;strokeColor=#23445d;fontSize=14;fontStyle=1;shadow=1;" parent="WIyWlLk6GJQsqaUBKTNV-1" vertex="1">
          <mxGeometry x="11" y="319" width="100" height="40" as="geometry" />
        </mxCell>
        <mxCell id="ZPii3JduxjOm7q3qWqcq-51" value="Email" style="ellipse;whiteSpace=wrap;html=1;align=center;fillColor=#bac8d3;strokeColor=#23445d;fontSize=14;fontStyle=1;shadow=1;" parent="WIyWlLk6GJQsqaUBKTNV-1" vertex="1">
          <mxGeometry x="80" y="370" width="100" height="40" as="geometry" />
        </mxCell>
        <mxCell id="ZPii3JduxjOm7q3qWqcq-52" value="Likes" style="ellipse;whiteSpace=wrap;html=1;align=center;fillColor=#bac8d3;strokeColor=#23445d;fontSize=14;fontStyle=1;shadow=1;" parent="WIyWlLk6GJQsqaUBKTNV-1" vertex="1">
          <mxGeometry x="736" y="260" width="100" height="40" as="geometry" />
        </mxCell>
        <mxCell id="ZPii3JduxjOm7q3qWqcq-53" value="Name" style="ellipse;whiteSpace=wrap;html=1;align=center;fillColor=#bac8d3;strokeColor=#23445d;fontSize=14;fontStyle=1;shadow=1;" parent="WIyWlLk6GJQsqaUBKTNV-1" vertex="1">
          <mxGeometry x="740" y="389" width="100" height="40" as="geometry" />
        </mxCell>
        <mxCell id="ZPii3JduxjOm7q3qWqcq-54" value="By" style="ellipse;whiteSpace=wrap;html=1;align=center;fillColor=#bac8d3;strokeColor=#23445d;fontSize=14;fontStyle=1;shadow=1;" parent="WIyWlLk6GJQsqaUBKTNV-1" vertex="1">
          <mxGeometry x="486" y="100" width="100" height="40" as="geometry" />
        </mxCell>
        <mxCell id="ZPii3JduxjOm7q3qWqcq-55" value="Desc" style="ellipse;whiteSpace=wrap;html=1;align=center;fillColor=#bac8d3;strokeColor=#23445d;fontSize=14;fontStyle=1;shadow=1;" parent="WIyWlLk6GJQsqaUBKTNV-1" vertex="1">
          <mxGeometry x="780" y="345" width="100" height="40" as="geometry" />
        </mxCell>
        <mxCell id="ZPii3JduxjOm7q3qWqcq-56" value="Code" style="ellipse;whiteSpace=wrap;html=1;align=center;fillColor=#bac8d3;strokeColor=#23445d;fontSize=14;fontStyle=1;shadow=1;" parent="WIyWlLk6GJQsqaUBKTNV-1" vertex="1">
          <mxGeometry x="780" y="300" width="100" height="40" as="geometry" />
        </mxCell>
        <mxCell id="ZPii3JduxjOm7q3qWqcq-57" value="To" style="ellipse;whiteSpace=wrap;html=1;align=center;fillColor=#bac8d3;strokeColor=#23445d;fontSize=14;fontStyle=1;shadow=1;" parent="WIyWlLk6GJQsqaUBKTNV-1" vertex="1">
          <mxGeometry x="267" y="100" width="100" height="40" as="geometry" />
        </mxCell>
        <mxCell id="ZPii3JduxjOm7q3qWqcq-58" value="Name" style="ellipse;whiteSpace=wrap;html=1;align=center;fillColor=#bac8d3;strokeColor=#23445d;fontSize=14;fontStyle=1;shadow=1;" parent="WIyWlLk6GJQsqaUBKTNV-1" vertex="1">
          <mxGeometry x="80" y="260" width="100" height="40" as="geometry" />
        </mxCell>
        <mxCell id="ZPii3JduxjOm7q3qWqcq-59" value="&lt;u style=&quot;font-size: 14px;&quot;&gt;Id&lt;/u&gt;" style="ellipse;whiteSpace=wrap;html=1;align=center;fillColor=#bac8d3;strokeColor=#23445d;fontSize=14;fontStyle=1;shadow=1;" parent="WIyWlLk6GJQsqaUBKTNV-1" vertex="1">
          <mxGeometry x="636" y="230" width="100" height="40" as="geometry" />
        </mxCell>
        <mxCell id="ZPii3JduxjOm7q3qWqcq-61" value="1" style="text;html=1;align=center;verticalAlign=middle;resizable=0;points=[];autosize=1;strokeColor=none;fillColor=none;fontSize=14;fontStyle=1;shadow=1;" parent="WIyWlLk6GJQsqaUBKTNV-1" vertex="1">
          <mxGeometry x="237" y="290" width="30" height="30" as="geometry" />
        </mxCell>
        <mxCell id="ZPii3JduxjOm7q3qWqcq-62" value="1" style="text;html=1;align=center;verticalAlign=middle;resizable=0;points=[];autosize=1;strokeColor=none;fillColor=none;fontSize=14;fontStyle=1;shadow=1;" parent="WIyWlLk6GJQsqaUBKTNV-1" vertex="1">
          <mxGeometry x="325" y="339" width="30" height="30" as="geometry" />
        </mxCell>
        <mxCell id="ZPii3JduxjOm7q3qWqcq-63" value="1" style="text;html=1;align=center;verticalAlign=middle;resizable=0;points=[];autosize=1;strokeColor=none;fillColor=none;fontSize=14;fontStyle=1;shadow=1;" parent="WIyWlLk6GJQsqaUBKTNV-1" vertex="1">
          <mxGeometry x="283" y="360" width="30" height="30" as="geometry" />
        </mxCell>
        <mxCell id="ZPii3JduxjOm7q3qWqcq-69" value="1" style="text;html=1;align=center;verticalAlign=middle;resizable=0;points=[];autosize=1;strokeColor=none;fillColor=none;fontSize=14;fontStyle=1;shadow=1;" parent="WIyWlLk6GJQsqaUBKTNV-1" vertex="1">
          <mxGeometry x="555" y="359" width="30" height="30" as="geometry" />
        </mxCell>
        <mxCell id="ZPii3JduxjOm7q3qWqcq-70" value="1" style="text;html=1;align=center;verticalAlign=middle;resizable=0;points=[];autosize=1;strokeColor=none;fillColor=none;fontSize=14;fontStyle=1;shadow=1;" parent="WIyWlLk6GJQsqaUBKTNV-1" vertex="1">
          <mxGeometry x="557" y="290" width="30" height="30" as="geometry" />
        </mxCell>
        <mxCell id="ZPii3JduxjOm7q3qWqcq-72" value="" style="endArrow=none;html=1;rounded=0;entryX=0;entryY=0;entryDx=0;entryDy=0;exitX=1;exitY=1;exitDx=0;exitDy=0;fontSize=14;fontStyle=1;shadow=1;" parent="WIyWlLk6GJQsqaUBKTNV-1" source="ZPii3JduxjOm7q3qWqcq-58" target="ZPii3JduxjOm7q3qWqcq-22" edge="1">
          <mxGeometry width="50" height="50" relative="1" as="geometry">
            <mxPoint x="80" y="450" as="sourcePoint" />
            <mxPoint x="130" y="400" as="targetPoint" />
          </mxGeometry>
        </mxCell>
        <mxCell id="ZPii3JduxjOm7q3qWqcq-73" value="" style="endArrow=none;html=1;rounded=0;entryX=0;entryY=1;entryDx=0;entryDy=0;exitX=1;exitY=0.5;exitDx=0;exitDy=0;fontSize=14;fontStyle=1;shadow=1;" parent="WIyWlLk6GJQsqaUBKTNV-1" source="ZPii3JduxjOm7q3qWqcq-51" target="ZPii3JduxjOm7q3qWqcq-22" edge="1">
          <mxGeometry width="50" height="50" relative="1" as="geometry">
            <mxPoint x="175" y="274" as="sourcePoint" />
            <mxPoint x="221" y="330" as="targetPoint" />
          </mxGeometry>
        </mxCell>
        <mxCell id="ZPii3JduxjOm7q3qWqcq-74" value="" style="endArrow=none;html=1;rounded=0;entryX=0;entryY=0.5;entryDx=0;entryDy=0;exitX=1;exitY=0.5;exitDx=0;exitDy=0;fontSize=14;fontStyle=1;shadow=1;" parent="WIyWlLk6GJQsqaUBKTNV-1" source="ZPii3JduxjOm7q3qWqcq-50" target="ZPii3JduxjOm7q3qWqcq-22" edge="1">
          <mxGeometry width="50" height="50" relative="1" as="geometry">
            <mxPoint x="185" y="284" as="sourcePoint" />
            <mxPoint x="231" y="340" as="targetPoint" />
          </mxGeometry>
        </mxCell>
        <mxCell id="ZPii3JduxjOm7q3qWqcq-75" value="" style="endArrow=none;html=1;rounded=0;entryX=1;entryY=0.5;entryDx=0;entryDy=0;exitX=0;exitY=0.5;exitDx=0;exitDy=0;fontSize=14;fontStyle=1;shadow=1;" parent="WIyWlLk6GJQsqaUBKTNV-1" source="ZPii3JduxjOm7q3qWqcq-56" target="ZPii3JduxjOm7q3qWqcq-24" edge="1">
          <mxGeometry width="50" height="50" relative="1" as="geometry">
            <mxPoint x="690" y="400" as="sourcePoint" />
            <mxPoint x="740" y="350" as="targetPoint" />
          </mxGeometry>
        </mxCell>
        <mxCell id="ZPii3JduxjOm7q3qWqcq-76" value="" style="endArrow=none;html=1;rounded=0;entryX=1;entryY=0.75;entryDx=0;entryDy=0;exitX=0.5;exitY=0;exitDx=0;exitDy=0;fontSize=14;fontStyle=1;shadow=1;" parent="WIyWlLk6GJQsqaUBKTNV-1" source="ZPii3JduxjOm7q3qWqcq-53" target="ZPii3JduxjOm7q3qWqcq-24" edge="1">
          <mxGeometry width="50" height="50" relative="1" as="geometry">
            <mxPoint x="700" y="410" as="sourcePoint" />
            <mxPoint x="750" y="360" as="targetPoint" />
          </mxGeometry>
        </mxCell>
        <mxCell id="ZPii3JduxjOm7q3qWqcq-77" value="" style="endArrow=none;html=1;rounded=0;entryX=1;entryY=0;entryDx=0;entryDy=0;exitX=0.5;exitY=1;exitDx=0;exitDy=0;fontSize=14;fontStyle=1;shadow=1;" parent="WIyWlLk6GJQsqaUBKTNV-1" source="ZPii3JduxjOm7q3qWqcq-59" target="ZPii3JduxjOm7q3qWqcq-24" edge="1">
          <mxGeometry width="50" height="50" relative="1" as="geometry">
            <mxPoint x="710" y="420" as="sourcePoint" />
            <mxPoint x="760" y="370" as="targetPoint" />
          </mxGeometry>
        </mxCell>
        <mxCell id="ZPii3JduxjOm7q3qWqcq-78" value="" style="endArrow=none;html=1;rounded=0;entryX=1;entryY=0.5;entryDx=0;entryDy=0;exitX=0;exitY=0.5;exitDx=0;exitDy=0;fontSize=14;fontStyle=1;shadow=1;" parent="WIyWlLk6GJQsqaUBKTNV-1" source="ZPii3JduxjOm7q3qWqcq-55" target="ZPii3JduxjOm7q3qWqcq-24" edge="1">
          <mxGeometry width="50" height="50" relative="1" as="geometry">
            <mxPoint x="720" y="430" as="sourcePoint" />
            <mxPoint x="770" y="380" as="targetPoint" />
          </mxGeometry>
        </mxCell>
        <mxCell id="ZPii3JduxjOm7q3qWqcq-79" value="" style="endArrow=none;html=1;rounded=0;entryX=1;entryY=0.25;entryDx=0;entryDy=0;exitX=0;exitY=0.5;exitDx=0;exitDy=0;fontSize=14;fontStyle=1;shadow=1;" parent="WIyWlLk6GJQsqaUBKTNV-1" source="ZPii3JduxjOm7q3qWqcq-52" target="ZPii3JduxjOm7q3qWqcq-24" edge="1">
          <mxGeometry width="50" height="50" relative="1" as="geometry">
            <mxPoint x="730" y="440" as="sourcePoint" />
            <mxPoint x="780" y="390" as="targetPoint" />
          </mxGeometry>
        </mxCell>
        <mxCell id="ZPii3JduxjOm7q3qWqcq-80" value="Roles" style="rounded=0;arcSize=10;whiteSpace=wrap;html=1;align=center;fillColor=#b0e3e6;strokeColor=#0e8088;glass=0;fontSize=14;fontStyle=1;shadow=1;" parent="WIyWlLk6GJQsqaUBKTNV-1" vertex="1">
          <mxGeometry x="175" y="610" width="100" height="40" as="geometry" />
        </mxCell>
        <mxCell id="ZPii3JduxjOm7q3qWqcq-87" value="Has" style="shape=rhombus;html=1;dashed=0;whiteSpace=wrap;perimeter=rhombusPerimeter;fillColor=#d0cee2;strokeColor=#56517e;fontSize=14;fontStyle=1;shadow=1;" parent="WIyWlLk6GJQsqaUBKTNV-1" vertex="1">
          <mxGeometry x="190" y="433" width="70" height="60" as="geometry" />
        </mxCell>
        <mxCell id="ZPii3JduxjOm7q3qWqcq-89" value="" style="endArrow=none;html=1;rounded=0;entryX=0.146;entryY=1.011;entryDx=0;entryDy=0;exitX=0.5;exitY=0;exitDx=0;exitDy=0;entryPerimeter=0;fontSize=14;fontStyle=1;shadow=1;" parent="WIyWlLk6GJQsqaUBKTNV-1" source="ZPii3JduxjOm7q3qWqcq-87" target="ZPii3JduxjOm7q3qWqcq-22" edge="1">
          <mxGeometry width="50" height="50" relative="1" as="geometry">
            <mxPoint x="308" y="371" as="sourcePoint" />
            <mxPoint x="309" y="446" as="targetPoint" />
          </mxGeometry>
        </mxCell>
        <mxCell id="ZPii3JduxjOm7q3qWqcq-91" value="" style="endArrow=none;html=1;rounded=0;entryX=0.5;entryY=1;entryDx=0;entryDy=0;exitX=0.5;exitY=0;exitDx=0;exitDy=0;fontSize=14;fontStyle=1;shadow=1;" parent="WIyWlLk6GJQsqaUBKTNV-1" source="ZPii3JduxjOm7q3qWqcq-80" target="ZPii3JduxjOm7q3qWqcq-87" edge="1">
          <mxGeometry width="50" height="50" relative="1" as="geometry">
            <mxPoint x="235" y="446" as="sourcePoint" />
            <mxPoint x="236" y="370" as="targetPoint" />
          </mxGeometry>
        </mxCell>
        <mxCell id="ZPii3JduxjOm7q3qWqcq-92" value="" style="endArrow=none;html=1;rounded=0;entryX=0.89;entryY=1.04;entryDx=0;entryDy=0;exitX=0.5;exitY=0;exitDx=0;exitDy=0;entryPerimeter=0;fontSize=14;fontStyle=1;shadow=1;" parent="WIyWlLk6GJQsqaUBKTNV-1" source="ZPii3JduxjOm7q3qWqcq-29" target="ZPii3JduxjOm7q3qWqcq-22" edge="1">
          <mxGeometry width="50" height="50" relative="1" as="geometry">
            <mxPoint x="235" y="446" as="sourcePoint" />
            <mxPoint x="234" y="370" as="targetPoint" />
          </mxGeometry>
        </mxCell>
        <mxCell id="ZPii3JduxjOm7q3qWqcq-93" value="1" style="text;html=1;align=center;verticalAlign=middle;resizable=0;points=[];autosize=1;strokeColor=none;fillColor=none;fontSize=14;fontStyle=1;shadow=1;" parent="WIyWlLk6GJQsqaUBKTNV-1" vertex="1">
          <mxGeometry x="225" y="360" width="30" height="30" as="geometry" />
        </mxCell>
        <mxCell id="ZPii3JduxjOm7q3qWqcq-95" value="" style="endArrow=none;html=1;rounded=0;entryX=0.25;entryY=1;entryDx=0;entryDy=0;exitX=1;exitY=0;exitDx=0;exitDy=0;fontSize=14;fontStyle=1;shadow=1;" parent="WIyWlLk6GJQsqaUBKTNV-1" source="ZPii3JduxjOm7q3qWqcq-47" target="ZPii3JduxjOm7q3qWqcq-80" edge="1">
          <mxGeometry width="50" height="50" relative="1" as="geometry">
            <mxPoint x="10" y="720" as="sourcePoint" />
            <mxPoint x="60" y="670" as="targetPoint" />
          </mxGeometry>
        </mxCell>
        <mxCell id="ZPii3JduxjOm7q3qWqcq-96" value="" style="endArrow=none;html=1;rounded=0;entryX=0.75;entryY=1;entryDx=0;entryDy=0;exitX=0;exitY=0;exitDx=0;exitDy=0;fontSize=14;fontStyle=1;shadow=1;" parent="WIyWlLk6GJQsqaUBKTNV-1" source="ZPii3JduxjOm7q3qWqcq-45" target="ZPii3JduxjOm7q3qWqcq-80" edge="1">
          <mxGeometry width="50" height="50" relative="1" as="geometry">
            <mxPoint x="165" y="676" as="sourcePoint" />
            <mxPoint x="210" y="660" as="targetPoint" />
          </mxGeometry>
        </mxCell>
        <mxCell id="ZPii3JduxjOm7q3qWqcq-97" value="" style="endArrow=none;html=1;rounded=0;exitX=0.5;exitY=0;exitDx=0;exitDy=0;entryX=0.5;entryY=1;entryDx=0;entryDy=0;fontSize=14;fontStyle=1;shadow=1;" parent="WIyWlLk6GJQsqaUBKTNV-1" source="ZPii3JduxjOm7q3qWqcq-48" target="ZPii3JduxjOm7q3qWqcq-80" edge="1">
          <mxGeometry width="50" height="50" relative="1" as="geometry">
            <mxPoint x="175" y="686" as="sourcePoint" />
            <mxPoint x="220" y="670" as="targetPoint" />
          </mxGeometry>
        </mxCell>
        <mxCell id="ZPii3JduxjOm7q3qWqcq-98" value="" style="endArrow=none;html=1;rounded=0;entryX=0.5;entryY=1;entryDx=0;entryDy=0;exitX=0.5;exitY=0;exitDx=0;exitDy=0;fontSize=14;fontStyle=1;shadow=1;" parent="WIyWlLk6GJQsqaUBKTNV-1" source="ZPii3JduxjOm7q3qWqcq-46" target="ZPii3JduxjOm7q3qWqcq-80" edge="1">
          <mxGeometry width="50" height="50" relative="1" as="geometry">
            <mxPoint x="185" y="696" as="sourcePoint" />
            <mxPoint x="230" y="680" as="targetPoint" />
          </mxGeometry>
        </mxCell>
        <mxCell id="ZPii3JduxjOm7q3qWqcq-99" value="Comment" style="ellipse;whiteSpace=wrap;html=1;align=center;fillColor=#bac8d3;strokeColor=#23445d;fontSize=14;fontStyle=1;shadow=1;" parent="WIyWlLk6GJQsqaUBKTNV-1" vertex="1">
          <mxGeometry x="364" y="560" width="100" height="40" as="geometry" />
        </mxCell>
        <mxCell id="ZPii3JduxjOm7q3qWqcq-100" value="&lt;u style=&quot;font-size: 14px;&quot;&gt;Id&lt;/u&gt;" style="ellipse;whiteSpace=wrap;html=1;align=center;fillColor=#bac8d3;strokeColor=#23445d;fontSize=14;fontStyle=1;shadow=1;" parent="WIyWlLk6GJQsqaUBKTNV-1" vertex="1">
          <mxGeometry x="485" y="560" width="100" height="40" as="geometry" />
        </mxCell>
        <mxCell id="ZPii3JduxjOm7q3qWqcq-101" value="&lt;u style=&quot;font-size: 14px;&quot;&gt;Id&lt;/u&gt;" style="ellipse;whiteSpace=wrap;html=1;align=center;fillColor=#bac8d3;strokeColor=#23445d;fontSize=14;fontStyle=1;shadow=1;" parent="WIyWlLk6GJQsqaUBKTNV-1" vertex="1">
          <mxGeometry x="248" y="150" width="100" height="40" as="geometry" />
        </mxCell>
        <mxCell id="ZPii3JduxjOm7q3qWqcq-102" value="&lt;u style=&quot;font-size: 14px;&quot;&gt;Id&lt;/u&gt;" style="ellipse;whiteSpace=wrap;html=1;align=center;fillColor=#bac8d3;strokeColor=#23445d;fontSize=14;fontStyle=1;shadow=1;" parent="WIyWlLk6GJQsqaUBKTNV-1" vertex="1">
          <mxGeometry x="170" y="780" width="100" height="40" as="geometry" />
        </mxCell>
        <mxCell id="ZPii3JduxjOm7q3qWqcq-103" value="" style="endArrow=none;html=1;rounded=0;entryX=0.5;entryY=1;entryDx=0;entryDy=0;exitX=0.5;exitY=0;exitDx=0;exitDy=0;fontSize=14;fontStyle=1;shadow=1;" parent="WIyWlLk6GJQsqaUBKTNV-1" source="ZPii3JduxjOm7q3qWqcq-102" target="ZPii3JduxjOm7q3qWqcq-80" edge="1">
          <mxGeometry width="50" height="50" relative="1" as="geometry">
            <mxPoint x="303" y="750" as="sourcePoint" />
            <mxPoint x="235" y="660" as="targetPoint" />
          </mxGeometry>
        </mxCell>
        <mxCell id="ZPii3JduxjOm7q3qWqcq-104" value="" style="endArrow=none;html=1;rounded=0;entryX=0.25;entryY=1;entryDx=0;entryDy=0;exitX=1;exitY=0;exitDx=0;exitDy=0;fontSize=14;fontStyle=1;shadow=1;" parent="WIyWlLk6GJQsqaUBKTNV-1" source="ZPii3JduxjOm7q3qWqcq-43" target="ZPii3JduxjOm7q3qWqcq-21" edge="1">
          <mxGeometry width="50" height="50" relative="1" as="geometry">
            <mxPoint x="430" y="560" as="sourcePoint" />
            <mxPoint x="480" y="510" as="targetPoint" />
          </mxGeometry>
        </mxCell>
        <mxCell id="ZPii3JduxjOm7q3qWqcq-105" value="" style="endArrow=none;html=1;rounded=0;entryX=0.5;entryY=1;entryDx=0;entryDy=0;exitX=0.5;exitY=0;exitDx=0;exitDy=0;fontSize=14;fontStyle=1;shadow=1;" parent="WIyWlLk6GJQsqaUBKTNV-1" source="ZPii3JduxjOm7q3qWqcq-99" target="ZPii3JduxjOm7q3qWqcq-21" edge="1">
          <mxGeometry width="50" height="50" relative="1" as="geometry">
            <mxPoint x="440" y="570" as="sourcePoint" />
            <mxPoint x="490" y="520" as="targetPoint" />
          </mxGeometry>
        </mxCell>
        <mxCell id="ZPii3JduxjOm7q3qWqcq-106" value="" style="endArrow=none;html=1;rounded=0;entryX=0.75;entryY=1;entryDx=0;entryDy=0;exitX=0;exitY=0;exitDx=0;exitDy=0;fontSize=14;fontStyle=1;shadow=1;" parent="WIyWlLk6GJQsqaUBKTNV-1" source="ZPii3JduxjOm7q3qWqcq-44" target="ZPii3JduxjOm7q3qWqcq-21" edge="1">
          <mxGeometry width="50" height="50" relative="1" as="geometry">
            <mxPoint x="450" y="580" as="sourcePoint" />
            <mxPoint x="500" y="530" as="targetPoint" />
          </mxGeometry>
        </mxCell>
        <mxCell id="ZPii3JduxjOm7q3qWqcq-107" value="" style="endArrow=none;html=1;rounded=0;entryX=0.5;entryY=1;entryDx=0;entryDy=0;exitX=0;exitY=0;exitDx=0;exitDy=0;fontSize=14;fontStyle=1;shadow=1;" parent="WIyWlLk6GJQsqaUBKTNV-1" source="ZPii3JduxjOm7q3qWqcq-100" target="ZPii3JduxjOm7q3qWqcq-21" edge="1">
          <mxGeometry width="50" height="50" relative="1" as="geometry">
            <mxPoint x="460" y="590" as="sourcePoint" />
            <mxPoint x="510" y="540" as="targetPoint" />
          </mxGeometry>
        </mxCell>
        <mxCell id="ZPii3JduxjOm7q3qWqcq-108" value="M" style="text;html=1;align=center;verticalAlign=middle;resizable=0;points=[];autosize=1;strokeColor=none;fillColor=none;fontSize=14;fontStyle=1;shadow=1;" parent="WIyWlLk6GJQsqaUBKTNV-1" vertex="1">
          <mxGeometry x="215" y="580" width="40" height="30" as="geometry" />
        </mxCell>
        <mxCell id="ZPii3JduxjOm7q3qWqcq-109" value="Category" style="ellipse;whiteSpace=wrap;html=1;align=center;fillColor=#bac8d3;strokeColor=#23445d;fontSize=14;fontStyle=1;shadow=1;" parent="WIyWlLk6GJQsqaUBKTNV-1" vertex="1">
          <mxGeometry x="501" y="150" width="100" height="40" as="geometry" />
        </mxCell>
        <mxCell id="ZPii3JduxjOm7q3qWqcq-110" value="Fields" style="ellipse;whiteSpace=wrap;html=1;align=center;fillColor=#bac8d3;strokeColor=#23445d;fontSize=14;fontStyle=1;shadow=1;" parent="WIyWlLk6GJQsqaUBKTNV-1" vertex="1">
          <mxGeometry x="438" y="50" width="100" height="40" as="geometry" />
        </mxCell>
        <mxCell id="ZPii3JduxjOm7q3qWqcq-111" value="ToAll" style="ellipse;whiteSpace=wrap;html=1;align=center;fillColor=#bac8d3;strokeColor=#23445d;fontSize=14;fontStyle=1;shadow=1;" parent="WIyWlLk6GJQsqaUBKTNV-1" vertex="1">
          <mxGeometry x="326" y="50" width="100" height="40" as="geometry" />
        </mxCell>
        <mxCell id="ZPii3JduxjOm7q3qWqcq-112" value="" style="endArrow=none;html=1;rounded=0;entryX=1;entryY=0.5;entryDx=0;entryDy=0;exitX=0;exitY=0;exitDx=0;exitDy=0;fontSize=14;fontStyle=1;shadow=1;" parent="WIyWlLk6GJQsqaUBKTNV-1" source="ZPii3JduxjOm7q3qWqcq-23" target="ZPii3JduxjOm7q3qWqcq-101" edge="1">
          <mxGeometry width="50" height="50" relative="1" as="geometry">
            <mxPoint x="400" y="180" as="sourcePoint" />
            <mxPoint x="440" y="160" as="targetPoint" />
          </mxGeometry>
        </mxCell>
        <mxCell id="ZPii3JduxjOm7q3qWqcq-113" value="" style="endArrow=none;html=1;rounded=0;exitX=0.25;exitY=0;exitDx=0;exitDy=0;entryX=1;entryY=1;entryDx=0;entryDy=0;fontSize=14;fontStyle=1;shadow=1;" parent="WIyWlLk6GJQsqaUBKTNV-1" source="ZPii3JduxjOm7q3qWqcq-23" target="ZPii3JduxjOm7q3qWqcq-57" edge="1">
          <mxGeometry width="50" height="50" relative="1" as="geometry">
            <mxPoint x="400" y="220" as="sourcePoint" />
            <mxPoint x="450" y="170" as="targetPoint" />
          </mxGeometry>
        </mxCell>
        <mxCell id="ZPii3JduxjOm7q3qWqcq-114" value="" style="endArrow=none;html=1;rounded=0;entryX=0.5;entryY=1;entryDx=0;entryDy=0;exitX=0.5;exitY=0;exitDx=0;exitDy=0;fontSize=14;fontStyle=1;shadow=1;" parent="WIyWlLk6GJQsqaUBKTNV-1" source="ZPii3JduxjOm7q3qWqcq-23" target="ZPii3JduxjOm7q3qWqcq-111" edge="1">
          <mxGeometry width="50" height="50" relative="1" as="geometry">
            <mxPoint x="410" y="230" as="sourcePoint" />
            <mxPoint x="460" y="180" as="targetPoint" />
          </mxGeometry>
        </mxCell>
        <mxCell id="ZPii3JduxjOm7q3qWqcq-115" value="" style="endArrow=none;html=1;rounded=0;entryX=0.5;entryY=1;entryDx=0;entryDy=0;exitX=0.5;exitY=0;exitDx=0;exitDy=0;fontSize=14;fontStyle=1;shadow=1;" parent="WIyWlLk6GJQsqaUBKTNV-1" source="ZPii3JduxjOm7q3qWqcq-23" target="ZPii3JduxjOm7q3qWqcq-110" edge="1">
          <mxGeometry width="50" height="50" relative="1" as="geometry">
            <mxPoint x="420" y="240" as="sourcePoint" />
            <mxPoint x="470" y="190" as="targetPoint" />
          </mxGeometry>
        </mxCell>
        <mxCell id="ZPii3JduxjOm7q3qWqcq-116" value="" style="endArrow=none;html=1;rounded=0;entryX=0;entryY=1;entryDx=0;entryDy=0;exitX=0.75;exitY=0;exitDx=0;exitDy=0;fontSize=14;fontStyle=1;shadow=1;" parent="WIyWlLk6GJQsqaUBKTNV-1" source="ZPii3JduxjOm7q3qWqcq-23" target="ZPii3JduxjOm7q3qWqcq-54" edge="1">
          <mxGeometry width="50" height="50" relative="1" as="geometry">
            <mxPoint x="430" y="250" as="sourcePoint" />
            <mxPoint x="480" y="200" as="targetPoint" />
          </mxGeometry>
        </mxCell>
        <mxCell id="ZPii3JduxjOm7q3qWqcq-117" value="" style="endArrow=none;html=1;rounded=0;entryX=0;entryY=0.5;entryDx=0;entryDy=0;exitX=1;exitY=0;exitDx=0;exitDy=0;fontSize=14;fontStyle=1;shadow=1;" parent="WIyWlLk6GJQsqaUBKTNV-1" source="ZPii3JduxjOm7q3qWqcq-23" target="ZPii3JduxjOm7q3qWqcq-109" edge="1">
          <mxGeometry width="50" height="50" relative="1" as="geometry">
            <mxPoint x="440" y="260" as="sourcePoint" />
            <mxPoint x="490" y="210" as="targetPoint" />
          </mxGeometry>
        </mxCell>
        <mxCell id="ZPii3JduxjOm7q3qWqcq-122" value="M" style="text;html=1;align=center;verticalAlign=middle;resizable=0;points=[];autosize=1;strokeColor=none;fillColor=none;fontSize=14;fontStyle=1;shadow=1;" parent="WIyWlLk6GJQsqaUBKTNV-1" vertex="1">
          <mxGeometry x="333" y="230" width="40" height="30" as="geometry" />
        </mxCell>
        <mxCell id="ZPii3JduxjOm7q3qWqcq-123" value="M" style="text;html=1;align=center;verticalAlign=middle;resizable=0;points=[];autosize=1;strokeColor=none;fillColor=none;fontSize=14;fontStyle=1;shadow=1;" parent="WIyWlLk6GJQsqaUBKTNV-1" vertex="1">
          <mxGeometry x="512" y="339" width="40" height="30" as="geometry" />
        </mxCell>
        <mxCell id="ZPii3JduxjOm7q3qWqcq-124" value="M" style="text;html=1;align=center;verticalAlign=middle;resizable=0;points=[];autosize=1;strokeColor=none;fillColor=none;fontSize=14;fontStyle=1;shadow=1;" parent="WIyWlLk6GJQsqaUBKTNV-1" vertex="1">
          <mxGeometry x="346" y="436" width="40" height="30" as="geometry" />
        </mxCell>
        <mxCell id="ZPii3JduxjOm7q3qWqcq-125" value="M" style="text;html=1;align=center;verticalAlign=middle;resizable=0;points=[];autosize=1;strokeColor=none;fillColor=none;fontSize=14;fontStyle=1;shadow=1;" parent="WIyWlLk6GJQsqaUBKTNV-1" vertex="1">
          <mxGeometry x="485" y="436" width="40" height="30" as="geometry" />
        </mxCell>
        <mxCell id="ZPii3JduxjOm7q3qWqcq-126" value="M" style="text;html=1;align=center;verticalAlign=middle;resizable=0;points=[];autosize=1;strokeColor=none;fillColor=none;fontSize=14;fontStyle=1;shadow=1;" parent="WIyWlLk6GJQsqaUBKTNV-1" vertex="1">
          <mxGeometry x="472" y="230" width="40" height="30" as="geometry" />
        </mxCell>
        <mxCell id="ZPii3JduxjOm7q3qWqcq-127" value="Role" style="ellipse;whiteSpace=wrap;html=1;align=center;fillColor=#bac8d3;strokeColor=#23445d;fontSize=14;fontStyle=1;shadow=1;" parent="WIyWlLk6GJQsqaUBKTNV-1" vertex="1">
          <mxGeometry x="640" y="406" width="100" height="40" as="geometry" />
        </mxCell>
        <mxCell id="ZPii3JduxjOm7q3qWqcq-128" value="" style="endArrow=none;html=1;rounded=0;entryX=1;entryY=1;entryDx=0;entryDy=0;exitX=0.5;exitY=0;exitDx=0;exitDy=0;fontSize=14;fontStyle=1;shadow=1;" parent="WIyWlLk6GJQsqaUBKTNV-1" source="ZPii3JduxjOm7q3qWqcq-127" target="ZPii3JduxjOm7q3qWqcq-24" edge="1">
          <mxGeometry width="50" height="50" relative="1" as="geometry">
            <mxPoint x="796" y="400" as="sourcePoint" />
            <mxPoint x="662" y="370" as="targetPoint" />
          </mxGeometry>
        </mxCell>
        <mxCell id="lKjWV1mKumBLOfqedw6U-1" value="Has" style="shape=rhombus;html=1;dashed=0;whiteSpace=wrap;perimeter=rhombusPerimeter;fillColor=#d0cee2;strokeColor=#56517e;fontSize=14;fontStyle=1;shadow=1;" vertex="1" parent="WIyWlLk6GJQsqaUBKTNV-1">
          <mxGeometry x="592" y="600" width="70" height="60" as="geometry" />
        </mxCell>
        <mxCell id="lKjWV1mKumBLOfqedw6U-2" value="" style="endArrow=none;html=1;rounded=0;entryX=0.5;entryY=0;entryDx=0;entryDy=0;exitX=0.5;exitY=1;exitDx=0;exitDy=0;fontSize=14;fontStyle=1;shadow=1;" edge="1" parent="WIyWlLk6GJQsqaUBKTNV-1" target="lKjWV1mKumBLOfqedw6U-1">
          <mxGeometry width="50" height="50" relative="1" as="geometry">
            <mxPoint x="626" y="360" as="sourcePoint" />
            <mxPoint x="630" y="590" as="targetPoint" />
          </mxGeometry>
        </mxCell>
        <mxCell id="lKjWV1mKumBLOfqedw6U-3" value="1" style="text;html=1;align=center;verticalAlign=middle;resizable=0;points=[];autosize=1;strokeColor=none;fillColor=none;fontSize=14;fontStyle=1;shadow=1;" vertex="1" parent="WIyWlLk6GJQsqaUBKTNV-1">
          <mxGeometry x="601" y="360" width="30" height="30" as="geometry" />
        </mxCell>
        <mxCell id="lKjWV1mKumBLOfqedw6U-4" value="" style="endArrow=none;html=1;rounded=0;entryX=0;entryY=0.5;entryDx=0;entryDy=0;exitX=1;exitY=0.5;exitDx=0;exitDy=0;fontSize=14;fontStyle=1;shadow=1;" edge="1" parent="WIyWlLk6GJQsqaUBKTNV-1" source="ZPii3JduxjOm7q3qWqcq-80" target="lKjWV1mKumBLOfqedw6U-1">
          <mxGeometry width="50" height="50" relative="1" as="geometry">
            <mxPoint x="235" y="620" as="sourcePoint" />
            <mxPoint x="235" y="503" as="targetPoint" />
          </mxGeometry>
        </mxCell>
        <mxCell id="lKjWV1mKumBLOfqedw6U-5" value="M" style="text;html=1;align=center;verticalAlign=middle;resizable=0;points=[];autosize=1;strokeColor=none;fillColor=none;fontSize=14;fontStyle=1;shadow=1;" vertex="1" parent="WIyWlLk6GJQsqaUBKTNV-1">
          <mxGeometry x="267" y="630" width="40" height="30" as="geometry" />
        </mxCell>
      </root>
    </mxGraphModel>
  </diagram>
</mxfile>
